<svg width="17" height="13" viewBox="0 0 17 13" fill="none" xmlns="http://www.w3.org/2000/svg">
<path opacity="0.5" d="M8.875 0.625C11.0625 0.625 12.8398 1.63672 14.125 2.83984C15.4102 4.01562 16.2578 5.4375 16.668 6.42188C16.75 6.64062 16.75 6.88672 16.668 7.10547C16.2578 8.0625 15.4102 9.48438 14.125 10.6875C12.8398 11.8906 11.0625 12.875 8.875 12.875C6.66016 12.875 4.88281 11.8906 3.59766 10.6875C2.3125 9.48438 1.46484 8.0625 1.05469 7.10547C0.972656 6.88672 0.972656 6.64062 1.05469 6.42188C1.46484 5.4375 2.3125 4.01562 3.59766 2.83984C4.88281 1.63672 6.66016 0.625 8.875 0.625ZM4.9375 6.75C4.9375 8.17188 5.67578 9.45703 6.90625 10.168C8.10938 10.8789 9.61328 10.8789 10.8438 10.168C12.0469 9.45703 12.8125 8.17188 12.8125 6.75C12.8125 5.35547 12.0469 4.07031 10.8438 3.35938C9.61328 2.64844 8.10938 2.64844 6.90625 3.35938C5.67578 4.07031 4.9375 5.35547 4.9375 6.75ZM8.875 5C8.875 4.80859 8.82031 4.64453 8.76562 4.45312C8.71094 4.31641 8.82031 4.125 8.98438 4.125C10.0781 4.17969 11.0898 4.94531 11.3906 6.09375C11.7734 7.48828 10.9531 8.91016 9.53125 9.29297C8.13672 9.67578 6.6875 8.82812 6.33203 7.43359C6.27734 7.24219 6.25 7.05078 6.25 6.88672C6.22266 6.72266 6.41406 6.61328 6.55078 6.66797C6.74219 6.72266 6.90625 6.75 7.125 6.75C8.08203 6.75 8.875 5.98438 8.875 5Z" fill="#808080"/>
</svg>
